<?xml version="1.0" standalone="no"?>
<!DOCTYPE svg PUBLIC "-//W3C//DTD SVG 20010904//EN"
 "http://www.w3.org/TR/2001/REC-SVG-20010904/DTD/svg10.dtd">
<svg version="1.0" xmlns="http://www.w3.org/2000/svg"
 width="295.000000pt" height="295.000000pt" viewBox="0 0 295.000000 295.000000"
 preserveAspectRatio="xMidYMid meet">
<metadata>
Created by potrace 1.11, written by Peter Selinger 2001-2013
</metadata>
<g transform="translate(0.000000,295.000000) scale(0.100000,-0.100000)"
fill="#000000" stroke="none">
<path d="M1329 2895 c-2 -1 -29 -5 -60 -8 -416 -42 -824 -305 -1056 -682 -141
-228 -201 -448 -201 -735 0 -265 58 -495 177 -699 195 -334 532 -590 893 -680
153 -38 261 -49 428 -45 172 5 149 3 268 26 283 53 530 186 748 402 121 121
203 234 274 381 104 213 142 396 135 655 -5 166 -5 164 -30 284 -52 250 -194
497 -402 697 -164 159 -350 272 -553 338 -99 32 -112 35 -250 56 -74 12 -362
20 -371 10z m205 -198 c12 -19 -3 -82 -49 -204 -26 -69 -27 -74 -11 -98 l16
-25 130 6 c71 3 139 7 151 9 64 12 218 20 421 20 193 0 230 -2 243 -16 14 -14
14 -17 -3 -32 -15 -14 -47 -18 -168 -22 -349 -12 -442 -15 -489 -21 -79 -8
-175 -23 -234 -36 l-53 -12 6 -60 c9 -93 23 -166 40 -215 20 -54 20 -121 2
-226 -8 -44 -17 -100 -21 -125 -3 -25 -8 -52 -10 -60 -2 -8 -7 -31 -10 -50 -3
-19 -12 -71 -20 -115 -8 -44 -17 -102 -20 -130 -3 -27 -8 -59 -10 -70 -20 -98
-27 -436 -12 -565 9 -85 13 -106 41 -225 44 -186 43 -214 -8 -201 -42 10 -96
103 -112 191 -2 11 -13 74 -24 140 -12 66 -23 129 -25 140 -9 53 -27 118 -41
155 -23 57 -52 60 -289 30 -44 -6 -98 -12 -120 -15 -22 -3 -74 -9 -115 -15
-167 -21 -199 -24 -296 -23 -146 2 -177 25 -94 72 47 26 47 26 220 51 195 27
241 31 454 35 198 4 241 11 250 42 4 14 69 327 91 438 3 11 11 54 20 95 8 41
20 100 26 130 6 30 15 70 20 88 7 30 5 35 -24 52 l-32 20 -35 -34 c-19 -18
-85 -81 -145 -139 l-111 -106 1 -58 c1 -97 -12 -199 -29 -232 -28 -53 -102
-89 -241 -116 -56 -11 -240 -13 -299 -4 -114 18 -202 110 -243 254 -19 63 -26
368 -12 445 24 122 72 168 235 221 82 27 66 24 139 34 118 17 207 3 295 -46
37 -21 58 -63 105 -209 23 -71 29 -78 63 -72 44 8 92 44 205 152 l107 102 0
62 c0 92 -14 133 -49 141 -23 5 -43 -4 -111 -50 -81 -54 -113 -65 -125 -45 -4
6 22 43 56 83 85 99 167 229 261 419 18 38 55 71 72 65 5 -2 14 -11 20 -20z
m813 -522 c101 -11 153 -57 153 -138 0 -72 -45 -129 -113 -143 -53 -11 -196
-18 -372 -19 -189 0 -190 0 -248 29 -35 16 -66 40 -76 57 -16 26 -18 45 -12
106 0 7 15 28 31 47 27 31 41 38 105 53 11 2 67 7 125 10 58 3 106 7 108 8 5
4 238 -4 299 -10z m23 -469 c30 -3 66 -14 80 -24 39 -28 69 -95 64 -144 -9
-92 -48 -113 -244 -133 -70 -7 -411 -6 -450 1 -82 15 -134 74 -134 151 0 46 4
57 32 86 42 43 82 55 212 63 58 3 106 7 107 8 4 3 285 -3 333 -8z m158 -419
c11 -13 9 -255 -3 -318 -8 -45 -57 -105 -98 -123 -18 -7 -64 -21 -103 -30 -94
-23 -134 -48 -134 -82 0 -15 22 -70 49 -123 65 -129 69 -141 39 -141 -13 0
-42 9 -65 19 -38 18 -46 28 -91 123 -27 57 -57 110 -66 117 -27 23 -91 14
-183 -24 -49 -20 -112 -45 -140 -56 -55 -20 -123 -25 -123 -10 0 19 102 71
241 122 171 63 202 86 189 143 -4 20 -14 43 -20 51 -18 22 -79 18 -205 -11
-179 -41 -215 -47 -223 -39 -4 4 8 20 27 35 34 29 90 47 284 90 111 25 137 42
137 93 0 69 -15 75 -166 61 -100 -8 -117 6 -42 34 64 24 163 40 279 47 l86 5
2 -52 c1 -72 7 -85 46 -98 76 -25 195 39 210 112 4 18 11 41 17 51 10 20 41
23 56 4z"/>
<path d="M601 1994 c-195 -34 -261 -92 -261 -227 0 -85 19 -111 81 -111 46 0
200 11 266 19 21 3 56 7 78 9 133 14 181 54 170 142 -10 77 -41 131 -87 155
-51 26 -148 31 -247 13z"/>
<path d="M805 1609 c-38 -4 -99 -10 -135 -14 -182 -17 -247 -33 -275 -67 -54
-64 -18 -166 80 -223 42 -25 54 -27 160 -27 201 1 272 38 309 160 19 61 18
134 -1 153 -18 18 -70 25 -138 18z"/>
<path d="M2097 2124 c-1 -1 -54 -4 -117 -5 -151 -3 -184 -12 -204 -53 -27 -58
-3 -110 59 -128 43 -12 353 -16 447 -5 64 7 121 28 134 48 14 23 4 83 -18 106
-12 13 -35 25 -52 28 -31 6 -244 14 -249 9z"/>
<path d="M1925 1665 c-5 -2 -31 -6 -57 -10 -61 -8 -98 -42 -98 -89 0 -98 42
-116 260 -116 316 0 400 22 400 106 0 62 -20 82 -98 100 -28 6 -389 14 -407 9z"/>
<path d="M2264 1056 c-59 -28 -94 -67 -94 -108 0 -35 40 -78 73 -78 44 0 147
41 167 67 24 31 26 90 4 121 -21 30 -83 29 -150 -2z"/>
</g>
</svg>
